<mxfile host="app.diagrams.net" modified="2024-02-27T08:06:34.085Z" agent="Mozilla/5.0 (Windows NT 10.0; Win64; x64) AppleWebKit/537.36 (KHTML, like Gecko) Chrome/122.0.0.0 Safari/537.36 Edg/122.0.0.0" version="23.1.6" etag="4IBQq6eX9KuyZ0FBvKJs" type="github">
  <diagram name="Page-1" id="X4xbFDu49ytsVkmAACUm">
    <mxGraphModel>
      <root>
        <mxCell id="0" />
        <mxCell id="1" parent="0" />
      </root>
    </mxGraphModel>
  </diagram>
</mxfile>
